<mxfile host="65bd71144e">
    <diagram id="5V5c2BulIGi3Wz4Sup3d" name="Page-1">
        <mxGraphModel dx="1079" dy="823" grid="1" gridSize="10" guides="1" tooltips="1" connect="1" arrows="1" fold="1" page="1" pageScale="1" pageWidth="850" pageHeight="1100" math="0" shadow="0">
            <root>
                <mxCell id="0"/>
                <mxCell id="1" parent="0"/>
                <mxCell id="17" style="edgeStyle=orthogonalEdgeStyle;html=1;" edge="1" parent="1" source="2" target="14">
                    <mxGeometry relative="1" as="geometry"/>
                </mxCell>
                <mxCell id="2" value="Mongo DB &lt;br&gt;(Intents)" style="rounded=1;whiteSpace=wrap;html=1;" vertex="1" parent="1">
                    <mxGeometry x="670" y="550" width="120" height="60" as="geometry"/>
                </mxCell>
                <mxCell id="9" style="edgeStyle=orthogonalEdgeStyle;html=1;entryX=0.5;entryY=0;entryDx=0;entryDy=0;" edge="1" parent="1" source="3" target="5">
                    <mxGeometry relative="1" as="geometry"/>
                </mxCell>
                <mxCell id="3" value="Web Interface&lt;br&gt;(User Input/output)" style="rounded=1;whiteSpace=wrap;html=1;" vertex="1" parent="1">
                    <mxGeometry x="190" y="30" width="180" height="100" as="geometry"/>
                </mxCell>
                <mxCell id="15" style="edgeStyle=orthogonalEdgeStyle;html=1;" edge="1" parent="1" source="8" target="14">
                    <mxGeometry relative="1" as="geometry"/>
                </mxCell>
                <mxCell id="16" style="edgeStyle=orthogonalEdgeStyle;html=1;entryX=1;entryY=0.5;entryDx=0;entryDy=0;" edge="1" parent="1" source="14" target="3">
                    <mxGeometry relative="1" as="geometry">
                        <Array as="points">
                            <mxPoint x="530" y="80"/>
                        </Array>
                    </mxGeometry>
                </mxCell>
                <mxCell id="14" value="Feed Forward Neural Networks" style="rounded=1;whiteSpace=wrap;html=1;" vertex="1" parent="1">
                    <mxGeometry x="450" y="550" width="160" height="60" as="geometry"/>
                </mxCell>
                <mxCell id="18" value="" style="group" vertex="1" connectable="0" parent="1">
                    <mxGeometry x="190" y="250" width="190" height="400" as="geometry"/>
                </mxCell>
                <mxCell id="4" value="NLP" style="rounded=1;whiteSpace=wrap;html=1;labelPosition=center;verticalLabelPosition=bottom;align=center;verticalAlign=top;" vertex="1" parent="18">
                    <mxGeometry width="190" height="400" as="geometry"/>
                </mxCell>
                <mxCell id="5" value="Tokenize" style="rounded=1;whiteSpace=wrap;html=1;" vertex="1" parent="18">
                    <mxGeometry x="30" y="30" width="120" height="60" as="geometry"/>
                </mxCell>
                <mxCell id="6" value="lower + stem" style="rounded=1;whiteSpace=wrap;html=1;" vertex="1" parent="18">
                    <mxGeometry x="30" y="120" width="120" height="60" as="geometry"/>
                </mxCell>
                <mxCell id="10" style="edgeStyle=orthogonalEdgeStyle;html=1;" edge="1" parent="18" source="5" target="6">
                    <mxGeometry relative="1" as="geometry"/>
                </mxCell>
                <mxCell id="7" value="Cleaning: Excluding punctiations etc." style="rounded=1;whiteSpace=wrap;html=1;" vertex="1" parent="18">
                    <mxGeometry x="30" y="210" width="120" height="60" as="geometry"/>
                </mxCell>
                <mxCell id="11" style="edgeStyle=orthogonalEdgeStyle;html=1;" edge="1" parent="18" source="6" target="7">
                    <mxGeometry relative="1" as="geometry"/>
                </mxCell>
                <mxCell id="8" value="Bag of words: Vectorization" style="rounded=1;whiteSpace=wrap;html=1;" vertex="1" parent="18">
                    <mxGeometry x="30" y="300" width="120" height="60" as="geometry"/>
                </mxCell>
                <mxCell id="12" style="edgeStyle=orthogonalEdgeStyle;html=1;entryX=0.5;entryY=0;entryDx=0;entryDy=0;" edge="1" parent="18" source="7" target="8">
                    <mxGeometry relative="1" as="geometry"/>
                </mxCell>
            </root>
        </mxGraphModel>
    </diagram>
</mxfile>